<?xml version="1.0" standalone="no"?>
<!DOCTYPE svg PUBLIC "-//W3C//DTD SVG 20010904//EN"
 "http://www.w3.org/TR/2001/REC-SVG-20010904/DTD/svg10.dtd">
<svg version="1.0" xmlns="http://www.w3.org/2000/svg"
 width="660.000000pt" height="400.000000pt" viewBox="0 0 660.000000 400.000000"
 preserveAspectRatio="xMidYMid meet">
<metadata>
Created by potrace 1.16, written by Peter Selinger 2001-2019
</metadata>
<g transform="translate(0.000000,400.000000) scale(0.100000,-0.100000)"
fill="#000000" stroke="none">
<path d="M0 2000 l0 -2000 3300 0 3300 0 -1 983 -1 982 -42 -195 c-75 -341
-157 -705 -161 -708 -2 -2 -8 13 -14 35 -26 91 -165 594 -181 653 -19 72 -23
70 -45 -40 -18 -84 -141 -619 -153 -665 -7 -23 -10 -26 -15 -12 -7 19 -61 24
-72 7 -7 -11 -64 -10 -71 1 -8 13 -75 280 -145 574 -38 160 -71 301 -74 314
-3 13 -8 22 -10 20 -2 -3 -35 -146 -74 -320 -65 -293 -128 -541 -130 -511 -1
7 -5 10 -11 7 -6 -3 -10 -1 -10 4 0 6 -8 11 -19 11 -10 0 -30 10 -45 21 -15
12 -48 27 -74 34 -33 8 -47 17 -46 28 1 9 -3 14 -8 11 -5 -3 -7 -17 -4 -30 6
-24 6 -24 -21 -11 -15 8 -40 13 -55 12 -15 -1 -25 2 -22 7 3 4 10 6 15 3 5 -3
6 1 3 9 -7 18 -30 11 -39 -12 -5 -13 -8 -14 -15 -3 -6 10 -14 -1 -31 -39 -18
-41 -25 -49 -33 -39 -20 26 -35 19 -52 -27 -17 -46 -34 -44 -34 4 0 13 -6 22
-15 22 -8 0 -15 6 -16 13 0 6 -5 2 -11 -10 -13 -27 -28 -30 -28 -5 0 9 -5 24
-10 32 -7 11 -14 3 -31 -39 l-23 -54 -21 49 -21 49 -28 -73 c-22 -56 -31 -70
-41 -62 -9 8 -19 -4 -39 -50 -15 -33 -29 -60 -31 -60 -3 0 -13 17 -24 37 l-19
37 -22 -44 -22 -44 -21 24 c-15 18 -18 20 -14 6 6 -15 3 -17 -13 -13 -12 3
-23 -1 -28 -9 -7 -12 -11 -9 -22 13 -7 15 -13 32 -12 36 2 5 -13 -3 -32 -18
-43 -33 -71 -38 -92 -18 -13 13 -17 14 -24 3 -4 -7 -15 -10 -24 -7 -9 4 -16 3
-16 -2 0 -9 -56 -25 -76 -22 -6 1 -17 -5 -23 -13 -7 -8 -19 -12 -27 -9 -8 3
-14 0 -14 -7 0 -6 -4 -8 -10 -5 -5 3 -10 2 -10 -4 0 -10 -49 -24 -92 -26 -16
-1 -28 3 -28 8 0 5 -6 7 -12 4 -7 -2 -18 3 -25 12 -11 14 -12 14 -13 -4 -1
-18 -2 -18 -11 -3 -11 20 -39 13 -40 -11 0 -12 -2 -12 -9 4 -5 11 -9 16 -9 11
-1 -6 -7 -2 -14 8 -12 17 -15 17 -29 2 -15 -14 -17 -14 -22 0 -3 9 -12 14 -20
11 -7 -3 -25 1 -40 8 -17 9 -28 10 -32 3 -3 -5 -15 -8 -25 -5 -10 3 -21 0 -24
-7 -3 -8 -7 -7 -11 2 -5 10 -9 10 -20 1 -9 -7 -14 -8 -14 -1 0 5 -10 8 -21 5
-15 -4 -27 0 -37 13 -10 14 -16 16 -19 6 -4 -10 -9 -8 -19 5 -13 17 -13 17
-14 1 0 -23 -26 -23 -39 0 -6 9 -11 11 -11 5 0 -16 -27 -17 -32 -2 -5 14 -58
22 -58 9 0 -4 -39 1 -87 12 -49 10 -97 21 -107 23 -10 3 -35 10 -54 16 -19 6
-50 9 -69 6 -31 -5 -34 -5 -18 7 16 12 12 14 -41 20 -101 11 -134 18 -130 24
2 4 -22 8 -54 9 -31 2 -74 10 -93 18 -42 17 -71 20 -47 5 12 -8 9 -10 -12 -10
-16 0 -28 4 -28 9 0 10 -60 22 -105 20 -50 -1 -219 24 -233 34 -9 7 -11 5 -6
-9 5 -18 5 -18 -10 0 -9 12 -16 15 -16 7 0 -9 -5 -8 -16 3 -18 18 -34 21 -34
6 0 -5 5 -9 11 -7 6 1 14 -5 16 -13 4 -13 3 -13 -6 0 -6 8 -11 11 -11 5 0 -5
-6 -3 -13 7 -17 21 -46 25 -75 10 -19 -11 -25 -10 -45 12 -18 19 -26 23 -35
14 -9 -9 -12 -7 -12 8 0 16 -2 17 -10 4 -5 -8 -10 -11 -10 -6 0 5 -9 1 -19 -8
-18 -17 -20 -16 -52 15 -31 30 -33 31 -46 13 -10 -13 -13 -14 -13 -3 -1 10 -5
9 -15 -5 -14 -18 -20 -15 -16 7 1 5 -3 6 -9 2 -6 -4 -19 4 -30 17 -11 13 -20
19 -20 13 0 -5 -10 6 -20 25 -18 33 -20 34 -26 13 -3 -13 -12 -23 -19 -23 -7
0 -16 -10 -20 -22 -6 -22 -7 -21 -22 12 -13 29 -16 32 -24 17 -7 -11 -22 -17
-47 -17 -21 0 -43 -5 -50 -12 -9 -9 -12 -8 -12 5 0 11 -12 18 -37 23 -21 4
-62 18 -91 31 -29 13 -57 21 -62 18 -5 -3 -15 4 -23 15 -7 11 -16 17 -20 14
-3 -3 -3 5 0 18 4 18 3 20 -6 8 -9 -13 -11 -13 -11 3 0 9 7 17 16 17 13 0 13
4 -3 30 -15 27 -16 32 -3 40 12 8 11 14 -8 39 -12 17 -22 37 -22 45 0 18 -20
26 -41 15 -10 -5 -16 -4 -17 4 0 7 -3 23 -7 37 -5 21 -4 20 9 -5 9 -18 15 -24
15 -13 1 10 7 15 19 11 10 -2 38 3 62 11 25 9 57 16 73 16 16 0 27 5 27 14 0
9 24 15 89 19 50 3 99 11 111 17 35 19 46 5 12 -15 -32 -20 -43 -45 -19 -45 8
0 17 3 20 7 7 6 14 7 117 19 30 3 57 9 60 13 19 24 257 67 353 63 15 -1 27 1
27 4 0 19 -34 79 -65 113 -21 23 -36 44 -33 46 3 3 57 -22 122 -55 l116 -60
113 5 c333 15 462 28 627 59 41 8 91 17 110 21 19 3 36 8 38 10 2 2 16 -1 30
-6 l27 -10 -24 25 c-31 33 -24 40 22 21 46 -19 48 -19 40 2 -6 16 -5 17 13 3
10 -8 0 8 -24 36 -41 50 -53 72 -32 59 16 -10 12 7 -7 27 -9 10 -12 18 -6 18
5 0 18 -9 29 -21 33 -37 94 -82 88 -65 -9 25 1 20 67 -31 l61 -48 82 4 c44 2
107 3 138 4 57 0 57 1 51 26 -3 14 -20 53 -37 86 -17 33 -32 63 -34 68 -2 4 4
4 13 1 16 -6 16 -5 1 24 -9 17 -16 34 -16 37 0 3 25 -10 55 -30 62 -39 70 -42
61 -20 -7 18 5 19 24 3 8 -7 -1 4 -20 25 -27 30 -32 40 -21 46 11 7 9 11 -8
20 -24 13 -29 33 -5 24 23 -9 94 18 94 35 0 9 20 -4 50 -32 27 -25 55 -46 61
-46 7 0 33 -12 58 -27 37 -22 56 -26 106 -24 33 1 82 9 109 17 27 8 62 14 78
14 15 0 28 4 28 8 0 11 69 32 105 32 36 0 95 21 95 33 0 6 23 7 53 4 37 -5 46
-4 32 3 -17 9 -16 10 8 7 15 -3 27 -1 27 3 0 4 22 10 48 14 27 3 57 13 68 21
10 8 33 15 51 15 17 0 44 5 59 10 14 6 67 15 116 20 49 5 96 14 104 20 7 7 26
13 41 15 33 4 201 37 323 65 98 21 145 29 215 36 28 3 77 10 110 15 111 19
199 28 272 28 39 1 75 5 78 11 3 5 26 7 52 3 34 -4 44 -3 39 5 -5 8 -51 12
-139 13 -109 1 -122 3 -77 9 30 5 105 11 165 13 61 3 138 9 173 13 l63 7 -7
-28 c-7 -28 -7 -28 17 -12 16 12 44 17 90 17 37 0 74 3 83 6 14 6 16 82 16
760 l0 754 -3300 0 -3300 0 0 -2000z m3434 380 c8 0 34 -15 58 -33 26 -20 66
-38 102 -46 47 -10 61 -18 75 -42 10 -19 24 -29 39 -29 20 0 76 -23 92 -37 3
-2 -6 -12 -19 -22 -22 -17 -27 -17 -65 -3 -23 9 -58 31 -79 49 -20 18 -40 33
-45 33 -4 0 6 -12 22 -26 44 -39 25 -38 -34 1 -29 20 -58 39 -64 42 -6 4 7
-14 28 -40 21 -26 41 -47 45 -47 3 -1 24 -17 46 -36 36 -32 37 -34 10 -20 -16
8 -57 42 -90 75 -65 66 -90 80 -52 29 14 -18 30 -44 37 -58 13 -25 13 -25 -26
4 -64 48 -209 196 -191 196 8 0 29 -11 45 -25 17 -14 38 -25 48 -25 12 0 5 10
-23 30 -22 17 -43 39 -46 50 -5 19 -5 19 34 0 21 -11 45 -20 53 -20z"/>
</g>
</svg>
